<svg xmlns="http://www.w3.org/2000/svg" width="178" height="178" viewBox="0 0 178 178">
    <path d="M4.944,2.472A2.472,2.472,0,1,1,2.472,0,2.472,2.472,0,0,1,4.944,2.472" fill="#3b43f2" />
    <path d="M4.944,2.472A2.472,2.472,0,1,1,2.472,0,2.472,2.472,0,0,1,4.944,2.472"
        transform="translate(24.722)" fill="#3b43f2" />
    <path d="M4.944,2.472A2.472,2.472,0,1,1,2.472,0,2.472,2.472,0,0,1,4.944,2.472"
        transform="translate(49.444)" fill="#3b43f2" />
    <path d="M4.944,2.472A2.472,2.472,0,1,1,2.472,0,2.472,2.472,0,0,1,4.944,2.472"
        transform="translate(74.167)" fill="#3b43f2" />
    <path d="M4.944,2.472A2.472,2.472,0,1,1,2.472,0,2.472,2.472,0,0,1,4.944,2.472"
        transform="translate(98.889)" fill="#3b43f2" />
    <path d="M4.944,2.472A2.472,2.472,0,1,1,2.472,0,2.472,2.472,0,0,1,4.944,2.472"
        transform="translate(123.611)" fill="#3b43f2" />
    <path d="M4.944,2.472A2.472,2.472,0,1,1,2.472,0,2.472,2.472,0,0,1,4.944,2.472"
        transform="translate(148.333)" fill="#3b43f2" />
    <path d="M4.944,2.472A2.472,2.472,0,1,1,2.472,0,2.472,2.472,0,0,1,4.944,2.472"
        transform="translate(173.056)" fill="#3b43f2" />
    <path d="M4.944,2.472A2.472,2.472,0,1,1,2.472,0,2.472,2.472,0,0,1,4.944,2.472"
        transform="translate(0 24.722)" fill="#3b43f2" />
    <path d="M4.944,2.472A2.472,2.472,0,1,1,2.472,0,2.472,2.472,0,0,1,4.944,2.472"
        transform="translate(24.722 24.722)" fill="#3b43f2" />
    <path d="M4.944,2.472A2.472,2.472,0,1,1,2.472,0,2.472,2.472,0,0,1,4.944,2.472"
        transform="translate(49.444 24.722)" fill="#3b43f2" />
    <path d="M4.944,2.472A2.472,2.472,0,1,1,2.472,0,2.472,2.472,0,0,1,4.944,2.472"
        transform="translate(74.167 24.722)" fill="#3b43f2" />
    <path d="M4.944,2.472A2.472,2.472,0,1,1,2.472,0,2.472,2.472,0,0,1,4.944,2.472"
        transform="translate(98.889 24.722)" fill="#3b43f2" />
    <path d="M4.944,2.472A2.472,2.472,0,1,1,2.472,0,2.472,2.472,0,0,1,4.944,2.472"
        transform="translate(123.611 24.722)" fill="#3b43f2" />
    <path d="M4.944,2.472A2.472,2.472,0,1,1,2.472,0,2.472,2.472,0,0,1,4.944,2.472"
        transform="translate(148.333 24.722)" fill="#3b43f2" />
    <path d="M4.944,2.472A2.472,2.472,0,1,1,2.472,0,2.472,2.472,0,0,1,4.944,2.472"
        transform="translate(173.056 24.722)" fill="#3b43f2" />
    <path d="M4.944,2.472A2.472,2.472,0,1,1,2.472,0,2.472,2.472,0,0,1,4.944,2.472"
        transform="translate(0 49.444)" fill="#3b43f2" />
    <path d="M4.944,2.472A2.472,2.472,0,1,1,2.472,0,2.472,2.472,0,0,1,4.944,2.472"
        transform="translate(24.722 49.444)" fill="#3b43f2" />
    <path d="M4.944,2.472A2.472,2.472,0,1,1,2.472,0,2.472,2.472,0,0,1,4.944,2.472"
        transform="translate(49.444 49.444)" fill="#3b43f2" />
    <path d="M4.944,2.472A2.472,2.472,0,1,1,2.472,0,2.472,2.472,0,0,1,4.944,2.472"
        transform="translate(74.167 49.444)" fill="#3b43f2" />
    <path d="M4.944,2.472A2.472,2.472,0,1,1,2.472,0,2.472,2.472,0,0,1,4.944,2.472"
        transform="translate(98.889 49.444)" fill="#3b43f2" />
    <path d="M4.944,2.472A2.472,2.472,0,1,1,2.472,0,2.472,2.472,0,0,1,4.944,2.472"
        transform="translate(123.611 49.444)" fill="#3b43f2" />
    <path d="M4.944,2.472A2.472,2.472,0,1,1,2.472,0,2.472,2.472,0,0,1,4.944,2.472"
        transform="translate(148.333 49.444)" fill="#3b43f2" />
    <path d="M4.944,2.472A2.472,2.472,0,1,1,2.472,0,2.472,2.472,0,0,1,4.944,2.472"
        transform="translate(173.056 49.444)" fill="#3b43f2" />
    <path d="M4.944,2.472A2.472,2.472,0,1,1,2.472,0,2.472,2.472,0,0,1,4.944,2.472"
        transform="translate(0 74.167)" fill="#3b43f2" />
    <path d="M4.944,2.472A2.472,2.472,0,1,1,2.472,0,2.472,2.472,0,0,1,4.944,2.472"
        transform="translate(24.722 74.167)" fill="#3b43f2" />
    <path d="M4.944,2.472A2.472,2.472,0,1,1,2.472,0,2.472,2.472,0,0,1,4.944,2.472"
        transform="translate(49.444 74.167)" fill="#3b43f2" />
    <path d="M4.944,2.472A2.472,2.472,0,1,1,2.472,0,2.472,2.472,0,0,1,4.944,2.472"
        transform="translate(74.167 74.167)" fill="#3b43f2" />
    <path d="M4.944,2.472A2.472,2.472,0,1,1,2.472,0,2.472,2.472,0,0,1,4.944,2.472"
        transform="translate(98.889 74.167)" fill="#3b43f2" />
    <path d="M4.944,2.472A2.472,2.472,0,1,1,2.472,0,2.472,2.472,0,0,1,4.944,2.472"
        transform="translate(123.611 74.167)" fill="#3b43f2" />
    <path d="M4.944,2.472A2.472,2.472,0,1,1,2.472,0,2.472,2.472,0,0,1,4.944,2.472"
        transform="translate(148.333 74.167)" fill="#3b43f2" />
    <path d="M4.944,2.472A2.472,2.472,0,1,1,2.472,0,2.472,2.472,0,0,1,4.944,2.472"
        transform="translate(173.056 74.167)" fill="#3b43f2" />
    <path d="M4.944,2.472A2.472,2.472,0,1,1,2.472,0,2.472,2.472,0,0,1,4.944,2.472"
        transform="translate(0 98.889)" fill="#3b43f2" />
    <path d="M4.944,2.472A2.472,2.472,0,1,1,2.472,0,2.472,2.472,0,0,1,4.944,2.472"
        transform="translate(24.722 98.889)" fill="#3b43f2" />
    <path d="M4.944,2.472A2.472,2.472,0,1,1,2.472,0,2.472,2.472,0,0,1,4.944,2.472"
        transform="translate(49.444 98.889)" fill="#3b43f2" />
    <path d="M4.944,2.472A2.472,2.472,0,1,1,2.472,0,2.472,2.472,0,0,1,4.944,2.472"
        transform="translate(74.167 98.889)" fill="#3b43f2" />
    <path d="M4.944,2.472A2.472,2.472,0,1,1,2.472,0,2.472,2.472,0,0,1,4.944,2.472"
        transform="translate(98.889 98.889)" fill="#3b43f2" />
    <path d="M4.944,2.472A2.472,2.472,0,1,1,2.472,0,2.472,2.472,0,0,1,4.944,2.472"
        transform="translate(123.611 98.889)" fill="#3b43f2" />
    <path d="M4.944,2.472A2.472,2.472,0,1,1,2.472,0,2.472,2.472,0,0,1,4.944,2.472"
        transform="translate(148.333 98.889)" fill="#3b43f2" />
    <path d="M4.944,2.472A2.472,2.472,0,1,1,2.472,0,2.472,2.472,0,0,1,4.944,2.472"
        transform="translate(173.056 98.889)" fill="#3b43f2" />
    <path d="M4.944,2.472A2.472,2.472,0,1,1,2.472,0,2.472,2.472,0,0,1,4.944,2.472"
        transform="translate(0 123.611)" fill="#3b43f2" />
    <path d="M4.944,2.472A2.472,2.472,0,1,1,2.472,0,2.472,2.472,0,0,1,4.944,2.472"
        transform="translate(24.722 123.611)" fill="#3b43f2" />
    <path d="M4.944,2.472A2.472,2.472,0,1,1,2.472,0,2.472,2.472,0,0,1,4.944,2.472"
        transform="translate(49.444 123.611)" fill="#3b43f2" />
    <path d="M4.944,2.472A2.472,2.472,0,1,1,2.472,0,2.472,2.472,0,0,1,4.944,2.472"
        transform="translate(74.167 123.611)" fill="#3b43f2" />
    <path d="M4.944,2.472A2.472,2.472,0,1,1,2.472,0,2.472,2.472,0,0,1,4.944,2.472"
        transform="translate(98.889 123.611)" fill="#3b43f2" />
    <path d="M4.944,2.472A2.472,2.472,0,1,1,2.472,0,2.472,2.472,0,0,1,4.944,2.472"
        transform="translate(123.611 123.611)" fill="#3b43f2" />
    <path d="M4.944,2.472A2.472,2.472,0,1,1,2.472,0,2.472,2.472,0,0,1,4.944,2.472"
        transform="translate(148.333 123.611)" fill="#3b43f2" />
    <path d="M4.944,2.472A2.472,2.472,0,1,1,2.472,0,2.472,2.472,0,0,1,4.944,2.472"
        transform="translate(173.056 123.611)" fill="#3b43f2" />
    <path d="M4.944,2.472A2.472,2.472,0,1,1,2.472,0,2.472,2.472,0,0,1,4.944,2.472"
        transform="translate(0 148.333)" fill="#3b43f2" />
    <path d="M4.944,2.472A2.472,2.472,0,1,1,2.472,0,2.472,2.472,0,0,1,4.944,2.472"
        transform="translate(24.722 148.333)" fill="#3b43f2" />
    <path d="M4.944,2.472A2.472,2.472,0,1,1,2.472,0,2.472,2.472,0,0,1,4.944,2.472"
        transform="translate(49.444 148.333)" fill="#3b43f2" />
    <path d="M4.944,2.472A2.472,2.472,0,1,1,2.472,0,2.472,2.472,0,0,1,4.944,2.472"
        transform="translate(74.167 148.333)" fill="#3b43f2" />
    <path d="M4.944,2.472A2.472,2.472,0,1,1,2.472,0,2.472,2.472,0,0,1,4.944,2.472"
        transform="translate(98.889 148.333)" fill="#3b43f2" />
    <path d="M4.944,2.472A2.472,2.472,0,1,1,2.472,0,2.472,2.472,0,0,1,4.944,2.472"
        transform="translate(123.611 148.333)" fill="#3b43f2" />
    <path d="M4.944,2.472A2.472,2.472,0,1,1,2.472,0,2.472,2.472,0,0,1,4.944,2.472"
        transform="translate(148.333 148.333)" fill="#3b43f2" />
    <path d="M4.944,2.472A2.472,2.472,0,1,1,2.472,0,2.472,2.472,0,0,1,4.944,2.472"
        transform="translate(173.056 148.333)" fill="#3b43f2" />
    <path d="M4.944,2.472A2.472,2.472,0,1,1,2.472,0,2.472,2.472,0,0,1,4.944,2.472"
        transform="translate(0 173.056)" fill="#3b43f2" />
    <path d="M4.944,2.472A2.472,2.472,0,1,1,2.472,0,2.472,2.472,0,0,1,4.944,2.472"
        transform="translate(24.722 173.056)" fill="#3b43f2" />
    <path d="M4.944,2.472A2.472,2.472,0,1,1,2.472,0,2.472,2.472,0,0,1,4.944,2.472"
        transform="translate(49.444 173.056)" fill="#3b43f2" />
    <path d="M4.944,2.472A2.472,2.472,0,1,1,2.472,0,2.472,2.472,0,0,1,4.944,2.472"
        transform="translate(74.167 173.056)" fill="#3b43f2" />
    <path d="M4.944,2.472A2.472,2.472,0,1,1,2.472,0,2.472,2.472,0,0,1,4.944,2.472"
        transform="translate(98.889 173.056)" fill="#3b43f2" />
    <path d="M4.944,2.472A2.472,2.472,0,1,1,2.472,0,2.472,2.472,0,0,1,4.944,2.472"
        transform="translate(123.611 173.056)" fill="#3b43f2" />
    <path d="M4.944,2.472A2.472,2.472,0,1,1,2.472,0,2.472,2.472,0,0,1,4.944,2.472"
        transform="translate(148.333 173.056)" fill="#3b43f2" />
    <path d="M4.944,2.472A2.472,2.472,0,1,1,2.472,0,2.472,2.472,0,0,1,4.944,2.472"
        transform="translate(173.056 173.056)" fill="#3b43f2" />
</svg>