<svg xmlns="http://www.w3.org/2000/svg" width="1938.945" height="1023.891" viewBox="0 0 1938.945 1023.891">
    <g transform="translate(0 -68.055)">
        <rect width="724" height="724" rx="100" transform="translate(915.055 580) rotate(-45)" fill="lightseagreen" />
        <circle cx="263.5" cy="263.5" r="263.5" transform="translate(0 217)" fill="lightseagreen" />
        <circle cx="12" cy="12" r="12" transform="translate(1165 690)" fill="none" />
        <path d="M12-2A14,14,0,0,1,26,12,14,14,0,0,1,12,26,14,14,0,0,1-2,12,14,14,0,0,1,12-2Zm0,24A10,10,0,1,0,2,12,10.011,10.011,0,0,0,12,22Z" transform="translate(1165 690)" fill="#fff" />
        <path d="M-2-2H22V22H-2ZM18,2H2V18H18Z" transform="translate(296.945 877.858) rotate(45)" fill="lightseagreen" />
        <path d="M12,4a8.009,8.009,0,0,1,8,8h4A12,12,0,0,0,0,12H4a8.009,8.009,0,0,1,8-8" transform="translate(243.945 781.142)" fill="lightseagreen" />
        <path d="M12,0A12.013,12.013,0,0,0,0,12H4a8.009,8.009,0,0,1,8-8Z" transform="translate(1261 589)" fill="#fff" />
        <g transform="translate(978.905 264)">
            <path d="M5.5,2.75A2.75,2.75,0,1,1,2.75,0,2.75,2.75,0,0,1,5.5,2.75" fill="lightseagreen" />
            <path d="M5.5,2.75A2.75,2.75,0,1,1,2.75,0,2.75,2.75,0,0,1,5.5,2.75" transform="translate(27.5)" fill="lightseagreen" />
            <path d="M5.5,2.75A2.75,2.75,0,1,1,2.75,0,2.75,2.75,0,0,1,5.5,2.75" transform="translate(55)" fill="lightseagreen" />
            <path d="M5.5,2.75A2.75,2.75,0,1,1,2.75,0,2.75,2.75,0,0,1,5.5,2.75" transform="translate(82.5)" fill="lightseagreen" />
            <path d="M5.5,2.75A2.75,2.75,0,1,1,2.75,0,2.75,2.75,0,0,1,5.5,2.75" transform="translate(110)" fill="lightseagreen" />
            <path d="M5.5,2.75A2.75,2.75,0,1,1,2.75,0,2.75,2.75,0,0,1,5.5,2.75" transform="translate(137.5)" fill="lightseagreen" />
            <path d="M5.5,2.75A2.75,2.75,0,1,1,2.75,0,2.75,2.75,0,0,1,5.5,2.75" transform="translate(165)" fill="lightseagreen" />
            <path d="M5.5,2.75A2.75,2.75,0,1,1,2.75,0,2.75,2.75,0,0,1,5.5,2.75" transform="translate(192.5)" fill="lightseagreen" />
            <path d="M5.5,2.75A2.75,2.75,0,1,1,2.75,0,2.75,2.75,0,0,1,5.5,2.75" transform="translate(0 27.5)" fill="lightseagreen" />
            <path d="M5.5,2.75A2.75,2.75,0,1,1,2.75,0,2.75,2.75,0,0,1,5.5,2.75" transform="translate(27.5 27.5)" fill="lightseagreen" />
            <path d="M5.5,2.75A2.75,2.75,0,1,1,2.75,0,2.75,2.75,0,0,1,5.5,2.75" transform="translate(55 27.5)" fill="lightseagreen" />
            <path d="M5.5,2.75A2.75,2.75,0,1,1,2.75,0,2.75,2.75,0,0,1,5.5,2.75" transform="translate(82.5 27.5)" fill="lightseagreen" />
            <path d="M5.5,2.75A2.75,2.75,0,1,1,2.75,0,2.75,2.75,0,0,1,5.5,2.75" transform="translate(110 27.5)" fill="lightseagreen" />
            <path d="M5.5,2.75A2.75,2.75,0,1,1,2.75,0,2.75,2.75,0,0,1,5.5,2.75" transform="translate(137.5 27.5)" fill="lightseagreen" />
            <path d="M5.5,2.75A2.75,2.75,0,1,1,2.75,0,2.75,2.75,0,0,1,5.5,2.75" transform="translate(165 27.5)" fill="lightseagreen" />
            <path d="M5.5,2.75A2.75,2.75,0,1,1,2.75,0,2.75,2.75,0,0,1,5.5,2.75" transform="translate(192.5 27.5)" fill="lightseagreen" />
            <path d="M5.5,2.75A2.75,2.75,0,1,1,2.75,0,2.75,2.75,0,0,1,5.5,2.75" transform="translate(0 55)" fill="lightseagreen" />
            <path d="M5.5,2.75A2.75,2.75,0,1,1,2.75,0,2.75,2.75,0,0,1,5.5,2.75" transform="translate(27.5 55)" fill="lightseagreen" />
            <path d="M5.5,2.75A2.75,2.75,0,1,1,2.75,0,2.75,2.75,0,0,1,5.5,2.75" transform="translate(55 55)" fill="lightseagreen" />
            <path d="M5.5,2.75A2.75,2.75,0,1,1,2.75,0,2.75,2.75,0,0,1,5.5,2.75" transform="translate(82.5 55)" fill="lightseagreen" />
            <path d="M5.5,2.75A2.75,2.75,0,1,1,2.75,0,2.75,2.75,0,0,1,5.5,2.75" transform="translate(110 55)" fill="lightseagreen" />
            <path d="M5.5,2.75A2.75,2.75,0,1,1,2.75,0,2.75,2.75,0,0,1,5.5,2.75" transform="translate(137.5 55)" fill="lightseagreen" />
            <path d="M5.5,2.75A2.75,2.75,0,1,1,2.75,0,2.75,2.75,0,0,1,5.5,2.75" transform="translate(165 55)" fill="lightseagreen" />
            <path d="M5.5,2.75A2.75,2.75,0,1,1,2.75,0,2.75,2.75,0,0,1,5.5,2.75" transform="translate(192.5 55)" fill="lightseagreen" />
            <path d="M5.5,2.75A2.75,2.75,0,1,1,2.75,0,2.75,2.75,0,0,1,5.5,2.75" transform="translate(0 82.5)" fill="lightseagreen" />
            <path d="M5.5,2.75A2.75,2.75,0,1,1,2.75,0,2.75,2.75,0,0,1,5.5,2.75" transform="translate(27.5 82.5)" fill="lightseagreen" />
            <path d="M5.5,2.75A2.75,2.75,0,1,1,2.75,0,2.75,2.75,0,0,1,5.5,2.75" transform="translate(55 82.5)" fill="lightseagreen" />
            <path d="M5.5,2.75A2.75,2.75,0,1,1,2.75,0,2.75,2.75,0,0,1,5.5,2.75" transform="translate(82.5 82.5)" fill="lightseagreen" />
            <path d="M5.5,2.75A2.75,2.75,0,1,1,2.75,0,2.75,2.75,0,0,1,5.5,2.75" transform="translate(110 82.5)" fill="lightseagreen" />
            <path d="M5.5,2.75A2.75,2.75,0,1,1,2.75,0,2.75,2.75,0,0,1,5.5,2.75" transform="translate(137.5 82.5)" fill="lightseagreen" />
            <path d="M5.5,2.75A2.75,2.75,0,1,1,2.75,0,2.75,2.75,0,0,1,5.5,2.75" transform="translate(165 82.5)" fill="lightseagreen" />
            <path d="M5.5,2.75A2.75,2.75,0,1,1,2.75,0,2.75,2.75,0,0,1,5.5,2.75" transform="translate(192.5 82.5)" fill="lightseagreen" />
            <path d="M5.5,2.75A2.75,2.75,0,1,1,2.75,0,2.75,2.75,0,0,1,5.5,2.75" transform="translate(0 110)" fill="lightseagreen" />
            <path d="M5.5,2.75A2.75,2.75,0,1,1,2.75,0,2.75,2.75,0,0,1,5.5,2.75" transform="translate(27.5 110)" fill="lightseagreen" />
            <path d="M5.5,2.75A2.75,2.75,0,1,1,2.75,0,2.75,2.75,0,0,1,5.5,2.75" transform="translate(55 110)" fill="lightseagreen" />
            <path d="M5.5,2.75A2.75,2.75,0,1,1,2.75,0,2.75,2.75,0,0,1,5.5,2.75" transform="translate(82.5 110)" fill="lightseagreen" />
            <path d="M5.5,2.75A2.75,2.75,0,1,1,2.75,0,2.75,2.75,0,0,1,5.5,2.75" transform="translate(110 110)" fill="lightseagreen" />
            <path d="M5.5,2.75A2.75,2.75,0,1,1,2.75,0,2.75,2.75,0,0,1,5.5,2.75" transform="translate(137.5 110)" fill="lightseagreen" />
            <path d="M5.5,2.75A2.75,2.75,0,1,1,2.75,0,2.75,2.75,0,0,1,5.5,2.75" transform="translate(165 110)" fill="lightseagreen" />
            <path d="M5.5,2.75A2.75,2.75,0,1,1,2.75,0,2.75,2.75,0,0,1,5.5,2.75" transform="translate(192.5 110)" fill="lightseagreen" />
            <path d="M5.5,2.75A2.75,2.75,0,1,1,2.75,0,2.75,2.75,0,0,1,5.5,2.75" transform="translate(0 137.5)" fill="lightseagreen" />
            <path d="M5.5,2.75A2.75,2.75,0,1,1,2.75,0,2.75,2.75,0,0,1,5.5,2.75" transform="translate(27.5 137.5)" fill="lightseagreen" />
            <path d="M5.5,2.75A2.75,2.75,0,1,1,2.75,0,2.75,2.75,0,0,1,5.5,2.75" transform="translate(55 137.5)" fill="lightseagreen" />
            <path d="M5.5,2.75A2.75,2.75,0,1,1,2.75,0,2.75,2.75,0,0,1,5.5,2.75" transform="translate(82.5 137.5)" fill="lightseagreen" />
            <path d="M5.5,2.75A2.75,2.75,0,1,1,2.75,0,2.75,2.75,0,0,1,5.5,2.75" transform="translate(110 137.5)" fill="lightseagreen" />
            <path d="M5.5,2.75A2.75,2.75,0,1,1,2.75,0,2.75,2.75,0,0,1,5.5,2.75" transform="translate(137.5 137.5)" fill="lightseagreen" />
            <path d="M5.5,2.75A2.75,2.75,0,1,1,2.75,0,2.75,2.75,0,0,1,5.5,2.75" transform="translate(165 137.5)" fill="lightseagreen" />
            <path d="M5.5,2.75A2.75,2.75,0,1,1,2.75,0,2.75,2.75,0,0,1,5.5,2.75" transform="translate(192.5 137.5)" fill="lightseagreen" />
            <path d="M5.5,2.75A2.75,2.75,0,1,1,2.75,0,2.75,2.75,0,0,1,5.5,2.75" transform="translate(0 165)" fill="lightseagreen" />
            <path d="M5.5,2.75A2.75,2.75,0,1,1,2.75,0,2.75,2.75,0,0,1,5.5,2.75" transform="translate(27.5 165)" fill="lightseagreen" />
            <path d="M5.5,2.75A2.75,2.75,0,1,1,2.75,0,2.75,2.75,0,0,1,5.5,2.75" transform="translate(55 165)" fill="lightseagreen" />
            <path d="M5.5,2.75A2.75,2.75,0,1,1,2.75,0,2.75,2.75,0,0,1,5.5,2.75" transform="translate(82.5 165)" fill="lightseagreen" />
            <path d="M5.5,2.75A2.75,2.75,0,1,1,2.75,0,2.75,2.75,0,0,1,5.5,2.75" transform="translate(110 165)" fill="lightseagreen" />
            <path d="M5.5,2.75A2.75,2.75,0,1,1,2.75,0,2.75,2.75,0,0,1,5.5,2.75" transform="translate(137.5 165)" fill="lightseagreen" />
            <path d="M5.5,2.75A2.75,2.75,0,1,1,2.75,0,2.75,2.75,0,0,1,5.5,2.75" transform="translate(165 165)" fill="lightseagreen" />
            <path d="M5.5,2.75A2.75,2.75,0,1,1,2.75,0,2.75,2.75,0,0,1,5.5,2.75" transform="translate(192.5 165)" fill="lightseagreen" />
            <path d="M5.5,2.75A2.75,2.75,0,1,1,2.75,0,2.75,2.75,0,0,1,5.5,2.75" transform="translate(0 192.5)" fill="lightseagreen" />
            <path d="M5.5,2.75A2.75,2.75,0,1,1,2.75,0,2.75,2.75,0,0,1,5.5,2.75" transform="translate(27.5 192.5)" fill="lightseagreen" />
            <path d="M5.5,2.75A2.75,2.75,0,1,1,2.75,0,2.75,2.75,0,0,1,5.5,2.75" transform="translate(55 192.5)" fill="lightseagreen" />
            <path d="M5.5,2.75A2.75,2.75,0,1,1,2.75,0,2.75,2.75,0,0,1,5.5,2.75" transform="translate(82.5 192.5)" fill="lightseagreen" />
            <path d="M5.5,2.75A2.75,2.75,0,1,1,2.75,0,2.75,2.75,0,0,1,5.5,2.75" transform="translate(110 192.5)" fill="lightseagreen" />
            <path d="M5.5,2.75A2.75,2.75,0,1,1,2.75,0,2.75,2.75,0,0,1,5.5,2.75" transform="translate(137.5 192.5)" fill="lightseagreen" />
            <path d="M5.5,2.75A2.75,2.75,0,1,1,2.75,0,2.75,2.75,0,0,1,5.5,2.75" transform="translate(165 192.5)" fill="lightseagreen" />
            <path d="M5.5,2.75A2.75,2.75,0,1,1,2.75,0,2.75,2.75,0,0,1,5.5,2.75" transform="translate(192.5 192.5)" fill="lightseagreen" />
        </g>
        <g transform="translate(244 280)">
            <path d="M6.611,3.306A3.306,3.306,0,1,1,3.306,0,3.306,3.306,0,0,1,6.611,3.306" fill="#fff" />
            <path d="M6.611,3.306A3.306,3.306,0,1,1,3.306,0,3.306,3.306,0,0,1,6.611,3.306" transform="translate(33.056)" fill="#fff" />
            <path d="M6.611,3.306A3.306,3.306,0,1,1,3.306,0,3.306,3.306,0,0,1,6.611,3.306" transform="translate(66.111)" fill="#fff" />
            <path d="M6.611,3.306A3.306,3.306,0,1,1,3.306,0,3.306,3.306,0,0,1,6.611,3.306" transform="translate(99.167)" fill="#fff" />
            <path d="M6.611,3.306A3.306,3.306,0,1,1,3.306,0,3.306,3.306,0,0,1,6.611,3.306" transform="translate(132.222)" fill="#fff" />
            <path d="M6.611,3.306A3.306,3.306,0,1,1,3.306,0,3.306,3.306,0,0,1,6.611,3.306" transform="translate(165.278)" fill="#fff" />
            <path d="M6.611,3.306A3.306,3.306,0,1,1,3.306,0,3.306,3.306,0,0,1,6.611,3.306" transform="translate(198.333)" fill="#fff" />
            <path d="M6.611,3.306A3.306,3.306,0,1,1,3.306,0,3.306,3.306,0,0,1,6.611,3.306" transform="translate(231.389)" fill="#fff" />
            <path d="M6.611,3.306A3.306,3.306,0,1,1,3.306,0,3.306,3.306,0,0,1,6.611,3.306" transform="translate(0 33.056)" fill="#fff" />
            <path d="M6.611,3.306A3.306,3.306,0,1,1,3.306,0,3.306,3.306,0,0,1,6.611,3.306" transform="translate(33.056 33.056)" fill="#fff" />
            <path d="M6.611,3.306A3.306,3.306,0,1,1,3.306,0,3.306,3.306,0,0,1,6.611,3.306" transform="translate(66.111 33.056)" fill="#fff" />
            <path d="M6.611,3.306A3.306,3.306,0,1,1,3.306,0,3.306,3.306,0,0,1,6.611,3.306" transform="translate(99.167 33.056)" fill="#fff" />
            <path d="M6.611,3.306A3.306,3.306,0,1,1,3.306,0,3.306,3.306,0,0,1,6.611,3.306" transform="translate(132.222 33.056)" fill="#fff" />
            <path d="M6.611,3.306A3.306,3.306,0,1,1,3.306,0,3.306,3.306,0,0,1,6.611,3.306" transform="translate(165.278 33.056)" fill="#fff" />
            <path d="M6.611,3.306A3.306,3.306,0,1,1,3.306,0,3.306,3.306,0,0,1,6.611,3.306" transform="translate(198.333 33.056)" fill="#fff" />
            <path d="M6.611,3.306A3.306,3.306,0,1,1,3.306,0,3.306,3.306,0,0,1,6.611,3.306" transform="translate(231.389 33.056)" fill="#fff" />
            <path d="M6.611,3.306A3.306,3.306,0,1,1,3.306,0,3.306,3.306,0,0,1,6.611,3.306" transform="translate(0 66.111)" fill="#fff" />
            <path d="M6.611,3.306A3.306,3.306,0,1,1,3.306,0,3.306,3.306,0,0,1,6.611,3.306" transform="translate(33.056 66.111)" fill="#fff" />
            <path d="M6.611,3.306A3.306,3.306,0,1,1,3.306,0,3.306,3.306,0,0,1,6.611,3.306" transform="translate(66.111 66.111)" fill="#fff" />
            <path d="M6.611,3.306A3.306,3.306,0,1,1,3.306,0,3.306,3.306,0,0,1,6.611,3.306" transform="translate(99.167 66.111)" fill="#fff" />
            <path d="M6.611,3.306A3.306,3.306,0,1,1,3.306,0,3.306,3.306,0,0,1,6.611,3.306" transform="translate(132.222 66.111)" fill="#fff" />
            <path d="M6.611,3.306A3.306,3.306,0,1,1,3.306,0,3.306,3.306,0,0,1,6.611,3.306" transform="translate(165.278 66.111)" fill="#fff" />
            <path d="M6.611,3.306A3.306,3.306,0,1,1,3.306,0,3.306,3.306,0,0,1,6.611,3.306" transform="translate(198.333 66.111)" fill="#fff" />
            <path d="M6.611,3.306A3.306,3.306,0,1,1,3.306,0,3.306,3.306,0,0,1,6.611,3.306" transform="translate(231.389 66.111)" fill="#fff" />
            <path d="M6.611,3.306A3.306,3.306,0,1,1,3.306,0,3.306,3.306,0,0,1,6.611,3.306" transform="translate(0 99.167)" fill="#fff" />
            <path d="M6.611,3.306A3.306,3.306,0,1,1,3.306,0,3.306,3.306,0,0,1,6.611,3.306" transform="translate(33.056 99.167)" fill="#fff" />
            <path d="M6.611,3.306A3.306,3.306,0,1,1,3.306,0,3.306,3.306,0,0,1,6.611,3.306" transform="translate(66.111 99.167)" fill="#fff" />
            <path d="M6.611,3.306A3.306,3.306,0,1,1,3.306,0,3.306,3.306,0,0,1,6.611,3.306" transform="translate(99.167 99.167)" fill="#fff" />
            <path d="M6.611,3.306A3.306,3.306,0,1,1,3.306,0,3.306,3.306,0,0,1,6.611,3.306" transform="translate(132.222 99.167)" fill="#fff" />
            <path d="M6.611,3.306A3.306,3.306,0,1,1,3.306,0,3.306,3.306,0,0,1,6.611,3.306" transform="translate(165.278 99.167)" fill="#fff" />
            <path d="M6.611,3.306A3.306,3.306,0,1,1,3.306,0,3.306,3.306,0,0,1,6.611,3.306" transform="translate(198.333 99.167)" fill="#fff" />
            <path d="M6.611,3.306A3.306,3.306,0,1,1,3.306,0,3.306,3.306,0,0,1,6.611,3.306" transform="translate(231.389 99.167)" fill="#fff" />
            <path d="M6.611,3.306A3.306,3.306,0,1,1,3.306,0,3.306,3.306,0,0,1,6.611,3.306" transform="translate(0 132.222)" fill="#fff" />
            <path d="M6.611,3.306A3.306,3.306,0,1,1,3.306,0,3.306,3.306,0,0,1,6.611,3.306" transform="translate(33.056 132.222)" fill="#fff" />
            <path d="M6.611,3.306A3.306,3.306,0,1,1,3.306,0,3.306,3.306,0,0,1,6.611,3.306" transform="translate(66.111 132.222)" fill="#fff" />
            <path d="M6.611,3.306A3.306,3.306,0,1,1,3.306,0,3.306,3.306,0,0,1,6.611,3.306" transform="translate(99.167 132.222)" fill="#fff" />
            <path d="M6.611,3.306A3.306,3.306,0,1,1,3.306,0,3.306,3.306,0,0,1,6.611,3.306" transform="translate(132.222 132.222)" fill="#fff" />
            <path d="M6.611,3.306A3.306,3.306,0,1,1,3.306,0,3.306,3.306,0,0,1,6.611,3.306" transform="translate(165.278 132.222)" fill="#fff" />
            <path d="M6.611,3.306A3.306,3.306,0,1,1,3.306,0,3.306,3.306,0,0,1,6.611,3.306" transform="translate(198.333 132.222)" fill="#fff" />
            <path d="M6.611,3.306A3.306,3.306,0,1,1,3.306,0,3.306,3.306,0,0,1,6.611,3.306" transform="translate(231.389 132.222)" fill="#fff" />
            <path d="M6.611,3.306A3.306,3.306,0,1,1,3.306,0,3.306,3.306,0,0,1,6.611,3.306" transform="translate(0 165.278)" fill="#fff" />
            <path d="M6.611,3.306A3.306,3.306,0,1,1,3.306,0,3.306,3.306,0,0,1,6.611,3.306" transform="translate(33.056 165.278)" fill="#fff" />
            <path d="M6.611,3.306A3.306,3.306,0,1,1,3.306,0,3.306,3.306,0,0,1,6.611,3.306" transform="translate(66.111 165.278)" fill="#fff" />
            <path d="M6.611,3.306A3.306,3.306,0,1,1,3.306,0,3.306,3.306,0,0,1,6.611,3.306" transform="translate(99.167 165.278)" fill="#fff" />
            <path d="M6.611,3.306A3.306,3.306,0,1,1,3.306,0,3.306,3.306,0,0,1,6.611,3.306" transform="translate(132.222 165.278)" fill="#fff" />
            <path d="M6.611,3.306A3.306,3.306,0,1,1,3.306,0,3.306,3.306,0,0,1,6.611,3.306" transform="translate(165.278 165.278)" fill="#fff" />
            <path d="M6.611,3.306A3.306,3.306,0,1,1,3.306,0,3.306,3.306,0,0,1,6.611,3.306" transform="translate(198.333 165.278)" fill="#fff" />
            <path d="M6.611,3.306A3.306,3.306,0,1,1,3.306,0,3.306,3.306,0,0,1,6.611,3.306" transform="translate(231.389 165.278)" fill="#fff" />
            <path d="M6.611,3.306A3.306,3.306,0,1,1,3.306,0,3.306,3.306,0,0,1,6.611,3.306" transform="translate(0 198.333)" fill="#fff" />
            <path d="M6.611,3.306A3.306,3.306,0,1,1,3.306,0,3.306,3.306,0,0,1,6.611,3.306" transform="translate(33.056 198.333)" fill="#fff" />
            <path d="M6.611,3.306A3.306,3.306,0,1,1,3.306,0,3.306,3.306,0,0,1,6.611,3.306" transform="translate(66.111 198.333)" fill="#fff" />
            <path d="M6.611,3.306A3.306,3.306,0,1,1,3.306,0,3.306,3.306,0,0,1,6.611,3.306" transform="translate(99.167 198.333)" fill="#fff" />
            <path d="M6.611,3.306A3.306,3.306,0,1,1,3.306,0,3.306,3.306,0,0,1,6.611,3.306" transform="translate(132.222 198.333)" fill="#fff" />
            <path d="M6.611,3.306A3.306,3.306,0,1,1,3.306,0,3.306,3.306,0,0,1,6.611,3.306" transform="translate(165.278 198.333)" fill="#fff" />
            <path d="M6.611,3.306A3.306,3.306,0,1,1,3.306,0,3.306,3.306,0,0,1,6.611,3.306" transform="translate(198.333 198.333)" fill="#fff" />
            <path d="M6.611,3.306A3.306,3.306,0,1,1,3.306,0,3.306,3.306,0,0,1,6.611,3.306" transform="translate(231.389 198.333)" fill="#fff" />
            <path d="M6.611,3.306A3.306,3.306,0,1,1,3.306,0,3.306,3.306,0,0,1,6.611,3.306" transform="translate(0 231.389)" fill="#fff" />
            <path d="M6.611,3.306A3.306,3.306,0,1,1,3.306,0,3.306,3.306,0,0,1,6.611,3.306" transform="translate(33.056 231.389)" fill="#fff" />
            <path d="M6.611,3.306A3.306,3.306,0,1,1,3.306,0,3.306,3.306,0,0,1,6.611,3.306" transform="translate(66.111 231.389)" fill="#fff" />
            <path d="M6.611,3.306A3.306,3.306,0,1,1,3.306,0,3.306,3.306,0,0,1,6.611,3.306" transform="translate(99.167 231.389)" fill="#fff" />
            <path d="M6.611,3.306A3.306,3.306,0,1,1,3.306,0,3.306,3.306,0,0,1,6.611,3.306" transform="translate(132.222 231.389)" fill="#fff" />
            <path d="M6.611,3.306A3.306,3.306,0,1,1,3.306,0,3.306,3.306,0,0,1,6.611,3.306" transform="translate(165.278 231.389)" fill="#fff" />
            <path d="M6.611,3.306A3.306,3.306,0,1,1,3.306,0,3.306,3.306,0,0,1,6.611,3.306" transform="translate(198.333 231.389)" fill="#fff" />
            <path d="M6.611,3.306A3.306,3.306,0,1,1,3.306,0,3.306,3.306,0,0,1,6.611,3.306" transform="translate(231.389 231.389)" fill="#fff" />
        </g>
    </g>
</svg>