<svg xmlns="http://www.w3.org/2000/svg"
    xmlns:xlink="http://www.w3.org/1999/xlink" width="1400.071" height="1400.071" viewBox="0 0 1400.071 1400.071">
    <defs>
        <filter id="a" x="347.036" y="658.894" width="268" height="268" filterUnits="userSpaceOnUse">
            <feOffset dx="40" dy="2" input="SourceAlpha" />
            <feGaussianBlur stdDeviation="40" result="b" />
            <feFlood flood-opacity="0.502" />
            <feComposite operator="in" in2="b" />
            <feComposite in="SourceGraphic" />
        </filter>
    </defs>
    <rect width="990" height="990" rx="100" transform="translate(0 700.036) rotate(-45)" fill="lightseagreen" />
    <g transform="translate(323.036 983.894)">
        <path d="M6.611,3.306A3.306,3.306,0,1,1,3.306,0,3.306,3.306,0,0,1,6.611,3.306" fill="#fff" />
        <path d="M6.611,3.306A3.306,3.306,0,1,1,3.306,0,3.306,3.306,0,0,1,6.611,3.306" transform="translate(33.056)" fill="#fff" />
        <path d="M6.611,3.306A3.306,3.306,0,1,1,3.306,0,3.306,3.306,0,0,1,6.611,3.306" transform="translate(66.111)" fill="#fff" />
        <path d="M6.611,3.306A3.306,3.306,0,1,1,3.306,0,3.306,3.306,0,0,1,6.611,3.306" transform="translate(99.167)" fill="#fff" />
        <path d="M6.611,3.306A3.306,3.306,0,1,1,3.306,0,3.306,3.306,0,0,1,6.611,3.306" transform="translate(132.222)" fill="#fff" />
        <path d="M6.611,3.306A3.306,3.306,0,1,1,3.306,0,3.306,3.306,0,0,1,6.611,3.306" transform="translate(165.278)" fill="#fff" />
        <path d="M6.611,3.306A3.306,3.306,0,1,1,3.306,0,3.306,3.306,0,0,1,6.611,3.306" transform="translate(198.333)" fill="#fff" />
        <path d="M6.611,3.306A3.306,3.306,0,1,1,3.306,0,3.306,3.306,0,0,1,6.611,3.306" transform="translate(231.389)" fill="#fff" />
        <path d="M6.611,3.306A3.306,3.306,0,1,1,3.306,0,3.306,3.306,0,0,1,6.611,3.306" transform="translate(0 33.056)" fill="#fff" />
        <path d="M6.611,3.306A3.306,3.306,0,1,1,3.306,0,3.306,3.306,0,0,1,6.611,3.306" transform="translate(33.056 33.056)" fill="#fff" />
        <path d="M6.611,3.306A3.306,3.306,0,1,1,3.306,0,3.306,3.306,0,0,1,6.611,3.306" transform="translate(66.111 33.056)" fill="#fff" />
        <path d="M6.611,3.306A3.306,3.306,0,1,1,3.306,0,3.306,3.306,0,0,1,6.611,3.306" transform="translate(99.167 33.056)" fill="#fff" />
        <path d="M6.611,3.306A3.306,3.306,0,1,1,3.306,0,3.306,3.306,0,0,1,6.611,3.306" transform="translate(132.222 33.056)" fill="#fff" />
        <path d="M6.611,3.306A3.306,3.306,0,1,1,3.306,0,3.306,3.306,0,0,1,6.611,3.306" transform="translate(165.278 33.056)" fill="#fff" />
        <path d="M6.611,3.306A3.306,3.306,0,1,1,3.306,0,3.306,3.306,0,0,1,6.611,3.306" transform="translate(198.333 33.056)" fill="#fff" />
        <path d="M6.611,3.306A3.306,3.306,0,1,1,3.306,0,3.306,3.306,0,0,1,6.611,3.306" transform="translate(231.389 33.056)" fill="#fff" />
        <path d="M6.611,3.306A3.306,3.306,0,1,1,3.306,0,3.306,3.306,0,0,1,6.611,3.306" transform="translate(0 66.111)" fill="#fff" />
        <path d="M6.611,3.306A3.306,3.306,0,1,1,3.306,0,3.306,3.306,0,0,1,6.611,3.306" transform="translate(33.056 66.111)" fill="#fff" />
        <path d="M6.611,3.306A3.306,3.306,0,1,1,3.306,0,3.306,3.306,0,0,1,6.611,3.306" transform="translate(66.111 66.111)" fill="#fff" />
        <path d="M6.611,3.306A3.306,3.306,0,1,1,3.306,0,3.306,3.306,0,0,1,6.611,3.306" transform="translate(99.167 66.111)" fill="#fff" />
        <path d="M6.611,3.306A3.306,3.306,0,1,1,3.306,0,3.306,3.306,0,0,1,6.611,3.306" transform="translate(132.222 66.111)" fill="#fff" />
        <path d="M6.611,3.306A3.306,3.306,0,1,1,3.306,0,3.306,3.306,0,0,1,6.611,3.306" transform="translate(165.278 66.111)" fill="#fff" />
        <path d="M6.611,3.306A3.306,3.306,0,1,1,3.306,0,3.306,3.306,0,0,1,6.611,3.306" transform="translate(198.333 66.111)" fill="#fff" />
        <path d="M6.611,3.306A3.306,3.306,0,1,1,3.306,0,3.306,3.306,0,0,1,6.611,3.306" transform="translate(231.389 66.111)" fill="#fff" />
        <path d="M6.611,3.306A3.306,3.306,0,1,1,3.306,0,3.306,3.306,0,0,1,6.611,3.306" transform="translate(0 99.167)" fill="#fff" />
        <path d="M6.611,3.306A3.306,3.306,0,1,1,3.306,0,3.306,3.306,0,0,1,6.611,3.306" transform="translate(33.056 99.167)" fill="#fff" />
        <path d="M6.611,3.306A3.306,3.306,0,1,1,3.306,0,3.306,3.306,0,0,1,6.611,3.306" transform="translate(66.111 99.167)" fill="#fff" />
        <path d="M6.611,3.306A3.306,3.306,0,1,1,3.306,0,3.306,3.306,0,0,1,6.611,3.306" transform="translate(99.167 99.167)" fill="#fff" />
        <path d="M6.611,3.306A3.306,3.306,0,1,1,3.306,0,3.306,3.306,0,0,1,6.611,3.306" transform="translate(132.222 99.167)" fill="#fff" />
        <path d="M6.611,3.306A3.306,3.306,0,1,1,3.306,0,3.306,3.306,0,0,1,6.611,3.306" transform="translate(165.278 99.167)" fill="#fff" />
        <path d="M6.611,3.306A3.306,3.306,0,1,1,3.306,0,3.306,3.306,0,0,1,6.611,3.306" transform="translate(198.333 99.167)" fill="#fff" />
        <path d="M6.611,3.306A3.306,3.306,0,1,1,3.306,0,3.306,3.306,0,0,1,6.611,3.306" transform="translate(231.389 99.167)" fill="#fff" />
        <path d="M6.611,3.306A3.306,3.306,0,1,1,3.306,0,3.306,3.306,0,0,1,6.611,3.306" transform="translate(0 132.222)" fill="#fff" />
        <path d="M6.611,3.306A3.306,3.306,0,1,1,3.306,0,3.306,3.306,0,0,1,6.611,3.306" transform="translate(33.056 132.222)" fill="#fff" />
        <path d="M6.611,3.306A3.306,3.306,0,1,1,3.306,0,3.306,3.306,0,0,1,6.611,3.306" transform="translate(66.111 132.222)" fill="#fff" />
        <path d="M6.611,3.306A3.306,3.306,0,1,1,3.306,0,3.306,3.306,0,0,1,6.611,3.306" transform="translate(99.167 132.222)" fill="#fff" />
        <path d="M6.611,3.306A3.306,3.306,0,1,1,3.306,0,3.306,3.306,0,0,1,6.611,3.306" transform="translate(132.222 132.222)" fill="#fff" />
        <path d="M6.611,3.306A3.306,3.306,0,1,1,3.306,0,3.306,3.306,0,0,1,6.611,3.306" transform="translate(165.278 132.222)" fill="#fff" />
        <path d="M6.611,3.306A3.306,3.306,0,1,1,3.306,0,3.306,3.306,0,0,1,6.611,3.306" transform="translate(198.333 132.222)" fill="#fff" />
        <path d="M6.611,3.306A3.306,3.306,0,1,1,3.306,0,3.306,3.306,0,0,1,6.611,3.306" transform="translate(231.389 132.222)" fill="#fff" />
        <path d="M6.611,3.306A3.306,3.306,0,1,1,3.306,0,3.306,3.306,0,0,1,6.611,3.306" transform="translate(0 165.278)" fill="#fff" />
        <path d="M6.611,3.306A3.306,3.306,0,1,1,3.306,0,3.306,3.306,0,0,1,6.611,3.306" transform="translate(33.056 165.278)" fill="#fff" />
        <path d="M6.611,3.306A3.306,3.306,0,1,1,3.306,0,3.306,3.306,0,0,1,6.611,3.306" transform="translate(66.111 165.278)" fill="#fff" />
        <path d="M6.611,3.306A3.306,3.306,0,1,1,3.306,0,3.306,3.306,0,0,1,6.611,3.306" transform="translate(99.167 165.278)" fill="#fff" />
        <path d="M6.611,3.306A3.306,3.306,0,1,1,3.306,0,3.306,3.306,0,0,1,6.611,3.306" transform="translate(132.222 165.278)" fill="#fff" />
        <path d="M6.611,3.306A3.306,3.306,0,1,1,3.306,0,3.306,3.306,0,0,1,6.611,3.306" transform="translate(165.278 165.278)" fill="#fff" />
        <path d="M6.611,3.306A3.306,3.306,0,1,1,3.306,0,3.306,3.306,0,0,1,6.611,3.306" transform="translate(198.333 165.278)" fill="#fff" />
        <path d="M6.611,3.306A3.306,3.306,0,1,1,3.306,0,3.306,3.306,0,0,1,6.611,3.306" transform="translate(231.389 165.278)" fill="#fff" />
        <path d="M6.611,3.306A3.306,3.306,0,1,1,3.306,0,3.306,3.306,0,0,1,6.611,3.306" transform="translate(0 198.333)" fill="#fff" />
        <path d="M6.611,3.306A3.306,3.306,0,1,1,3.306,0,3.306,3.306,0,0,1,6.611,3.306" transform="translate(33.056 198.333)" fill="#fff" />
        <path d="M6.611,3.306A3.306,3.306,0,1,1,3.306,0,3.306,3.306,0,0,1,6.611,3.306" transform="translate(66.111 198.333)" fill="#fff" />
        <path d="M6.611,3.306A3.306,3.306,0,1,1,3.306,0,3.306,3.306,0,0,1,6.611,3.306" transform="translate(99.167 198.333)" fill="#fff" />
        <path d="M6.611,3.306A3.306,3.306,0,1,1,3.306,0,3.306,3.306,0,0,1,6.611,3.306" transform="translate(132.222 198.333)" fill="#fff" />
        <path d="M6.611,3.306A3.306,3.306,0,1,1,3.306,0,3.306,3.306,0,0,1,6.611,3.306" transform="translate(165.278 198.333)" fill="#fff" />
        <path d="M6.611,3.306A3.306,3.306,0,1,1,3.306,0,3.306,3.306,0,0,1,6.611,3.306" transform="translate(198.333 198.333)" fill="#fff" />
        <path d="M6.611,3.306A3.306,3.306,0,1,1,3.306,0,3.306,3.306,0,0,1,6.611,3.306" transform="translate(231.389 198.333)" fill="#fff" />
        <path d="M6.611,3.306A3.306,3.306,0,1,1,3.306,0,3.306,3.306,0,0,1,6.611,3.306" transform="translate(0 231.389)" fill="#fff" />
        <path d="M6.611,3.306A3.306,3.306,0,1,1,3.306,0,3.306,3.306,0,0,1,6.611,3.306" transform="translate(33.056 231.389)" fill="#fff" />
        <path d="M6.611,3.306A3.306,3.306,0,1,1,3.306,0,3.306,3.306,0,0,1,6.611,3.306" transform="translate(66.111 231.389)" fill="#fff" />
        <path d="M6.611,3.306A3.306,3.306,0,1,1,3.306,0,3.306,3.306,0,0,1,6.611,3.306" transform="translate(99.167 231.389)" fill="#fff" />
        <path d="M6.611,3.306A3.306,3.306,0,1,1,3.306,0,3.306,3.306,0,0,1,6.611,3.306" transform="translate(132.222 231.389)" fill="#fff" />
        <path d="M6.611,3.306A3.306,3.306,0,1,1,3.306,0,3.306,3.306,0,0,1,6.611,3.306" transform="translate(165.278 231.389)" fill="#fff" />
        <path d="M6.611,3.306A3.306,3.306,0,1,1,3.306,0,3.306,3.306,0,0,1,6.611,3.306" transform="translate(198.333 231.389)" fill="#fff" />
        <path d="M6.611,3.306A3.306,3.306,0,1,1,3.306,0,3.306,3.306,0,0,1,6.611,3.306" transform="translate(231.389 231.389)" fill="#fff" />
    </g>
    <g transform="translate(-649.964 -35.106)">
        <circle cx="12" cy="12" r="12" transform="translate(1079 814)" fill="none" />
        <g transform="matrix(1, 0, 0, 1, 649.96, 35.11)" filter="url(#a)">
            <circle cx="12" cy="12" r="12" transform="translate(429.04 778.89)" fill="none" stroke="#fff" stroke-miterlimit="10" stroke-width="4" />
        </g>
    </g>
    <g transform="translate(56.036 475.894)" opacity="0.27">
        <path d="M6.611,3.306A3.306,3.306,0,1,1,3.306,0,3.306,3.306,0,0,1,6.611,3.306" fill="#fff" />
        <path d="M6.611,3.306A3.306,3.306,0,1,1,3.306,0,3.306,3.306,0,0,1,6.611,3.306" transform="translate(33.056)" fill="#fff" />
        <path d="M6.611,3.306A3.306,3.306,0,1,1,3.306,0,3.306,3.306,0,0,1,6.611,3.306" transform="translate(66.111)" fill="#fff" />
        <path d="M6.611,3.306A3.306,3.306,0,1,1,3.306,0,3.306,3.306,0,0,1,6.611,3.306" transform="translate(99.167)" fill="#fff" />
        <path d="M6.611,3.306A3.306,3.306,0,1,1,3.306,0,3.306,3.306,0,0,1,6.611,3.306" transform="translate(132.222)" fill="#fff" />
        <path d="M6.611,3.306A3.306,3.306,0,1,1,3.306,0,3.306,3.306,0,0,1,6.611,3.306" transform="translate(165.278)" fill="#fff" />
        <path d="M6.611,3.306A3.306,3.306,0,1,1,3.306,0,3.306,3.306,0,0,1,6.611,3.306" transform="translate(198.333)" fill="#fff" />
        <path d="M6.611,3.306A3.306,3.306,0,1,1,3.306,0,3.306,3.306,0,0,1,6.611,3.306" transform="translate(231.389)" fill="#fff" />
        <path d="M6.611,3.306A3.306,3.306,0,1,1,3.306,0,3.306,3.306,0,0,1,6.611,3.306" transform="translate(0 33.056)" fill="#fff" />
        <path d="M6.611,3.306A3.306,3.306,0,1,1,3.306,0,3.306,3.306,0,0,1,6.611,3.306" transform="translate(33.056 33.056)" fill="#fff" />
        <path d="M6.611,3.306A3.306,3.306,0,1,1,3.306,0,3.306,3.306,0,0,1,6.611,3.306" transform="translate(66.111 33.056)" fill="#fff" />
        <path d="M6.611,3.306A3.306,3.306,0,1,1,3.306,0,3.306,3.306,0,0,1,6.611,3.306" transform="translate(99.167 33.056)" fill="#fff" />
        <path d="M6.611,3.306A3.306,3.306,0,1,1,3.306,0,3.306,3.306,0,0,1,6.611,3.306" transform="translate(132.222 33.056)" fill="#fff" />
        <path d="M6.611,3.306A3.306,3.306,0,1,1,3.306,0,3.306,3.306,0,0,1,6.611,3.306" transform="translate(165.278 33.056)" fill="#fff" />
        <path d="M6.611,3.306A3.306,3.306,0,1,1,3.306,0,3.306,3.306,0,0,1,6.611,3.306" transform="translate(198.333 33.056)" fill="#fff" />
        <path d="M6.611,3.306A3.306,3.306,0,1,1,3.306,0,3.306,3.306,0,0,1,6.611,3.306" transform="translate(231.389 33.056)" fill="#fff" />
        <path d="M6.611,3.306A3.306,3.306,0,1,1,3.306,0,3.306,3.306,0,0,1,6.611,3.306" transform="translate(0 66.111)" fill="#fff" />
        <path d="M6.611,3.306A3.306,3.306,0,1,1,3.306,0,3.306,3.306,0,0,1,6.611,3.306" transform="translate(33.056 66.111)" fill="#fff" />
        <path d="M6.611,3.306A3.306,3.306,0,1,1,3.306,0,3.306,3.306,0,0,1,6.611,3.306" transform="translate(66.111 66.111)" fill="#fff" />
        <path d="M6.611,3.306A3.306,3.306,0,1,1,3.306,0,3.306,3.306,0,0,1,6.611,3.306" transform="translate(99.167 66.111)" fill="#fff" />
        <path d="M6.611,3.306A3.306,3.306,0,1,1,3.306,0,3.306,3.306,0,0,1,6.611,3.306" transform="translate(132.222 66.111)" fill="#fff" />
        <path d="M6.611,3.306A3.306,3.306,0,1,1,3.306,0,3.306,3.306,0,0,1,6.611,3.306" transform="translate(165.278 66.111)" fill="#fff" />
        <path d="M6.611,3.306A3.306,3.306,0,1,1,3.306,0,3.306,3.306,0,0,1,6.611,3.306" transform="translate(198.333 66.111)" fill="#fff" />
        <path d="M6.611,3.306A3.306,3.306,0,1,1,3.306,0,3.306,3.306,0,0,1,6.611,3.306" transform="translate(231.389 66.111)" fill="#fff" />
        <path d="M6.611,3.306A3.306,3.306,0,1,1,3.306,0,3.306,3.306,0,0,1,6.611,3.306" transform="translate(0 99.167)" fill="#fff" />
        <path d="M6.611,3.306A3.306,3.306,0,1,1,3.306,0,3.306,3.306,0,0,1,6.611,3.306" transform="translate(33.056 99.167)" fill="#fff" />
        <path d="M6.611,3.306A3.306,3.306,0,1,1,3.306,0,3.306,3.306,0,0,1,6.611,3.306" transform="translate(66.111 99.167)" fill="#fff" />
        <path d="M6.611,3.306A3.306,3.306,0,1,1,3.306,0,3.306,3.306,0,0,1,6.611,3.306" transform="translate(99.167 99.167)" fill="#fff" />
        <path d="M6.611,3.306A3.306,3.306,0,1,1,3.306,0,3.306,3.306,0,0,1,6.611,3.306" transform="translate(132.222 99.167)" fill="#fff" />
        <path d="M6.611,3.306A3.306,3.306,0,1,1,3.306,0,3.306,3.306,0,0,1,6.611,3.306" transform="translate(165.278 99.167)" fill="#fff" />
        <path d="M6.611,3.306A3.306,3.306,0,1,1,3.306,0,3.306,3.306,0,0,1,6.611,3.306" transform="translate(198.333 99.167)" fill="#fff" />
        <path d="M6.611,3.306A3.306,3.306,0,1,1,3.306,0,3.306,3.306,0,0,1,6.611,3.306" transform="translate(231.389 99.167)" fill="#fff" />
        <path d="M6.611,3.306A3.306,3.306,0,1,1,3.306,0,3.306,3.306,0,0,1,6.611,3.306" transform="translate(0 132.222)" fill="#fff" />
        <path d="M6.611,3.306A3.306,3.306,0,1,1,3.306,0,3.306,3.306,0,0,1,6.611,3.306" transform="translate(33.056 132.222)" fill="#fff" />
        <path d="M6.611,3.306A3.306,3.306,0,1,1,3.306,0,3.306,3.306,0,0,1,6.611,3.306" transform="translate(66.111 132.222)" fill="#fff" />
        <path d="M6.611,3.306A3.306,3.306,0,1,1,3.306,0,3.306,3.306,0,0,1,6.611,3.306" transform="translate(99.167 132.222)" fill="#fff" />
        <path d="M6.611,3.306A3.306,3.306,0,1,1,3.306,0,3.306,3.306,0,0,1,6.611,3.306" transform="translate(132.222 132.222)" fill="#fff" />
        <path d="M6.611,3.306A3.306,3.306,0,1,1,3.306,0,3.306,3.306,0,0,1,6.611,3.306" transform="translate(165.278 132.222)" fill="#fff" />
        <path d="M6.611,3.306A3.306,3.306,0,1,1,3.306,0,3.306,3.306,0,0,1,6.611,3.306" transform="translate(198.333 132.222)" fill="#fff" />
        <path d="M6.611,3.306A3.306,3.306,0,1,1,3.306,0,3.306,3.306,0,0,1,6.611,3.306" transform="translate(231.389 132.222)" fill="#fff" />
        <path d="M6.611,3.306A3.306,3.306,0,1,1,3.306,0,3.306,3.306,0,0,1,6.611,3.306" transform="translate(0 165.278)" fill="#fff" />
        <path d="M6.611,3.306A3.306,3.306,0,1,1,3.306,0,3.306,3.306,0,0,1,6.611,3.306" transform="translate(33.056 165.278)" fill="#fff" />
        <path d="M6.611,3.306A3.306,3.306,0,1,1,3.306,0,3.306,3.306,0,0,1,6.611,3.306" transform="translate(66.111 165.278)" fill="#fff" />
        <path d="M6.611,3.306A3.306,3.306,0,1,1,3.306,0,3.306,3.306,0,0,1,6.611,3.306" transform="translate(99.167 165.278)" fill="#fff" />
        <path d="M6.611,3.306A3.306,3.306,0,1,1,3.306,0,3.306,3.306,0,0,1,6.611,3.306" transform="translate(132.222 165.278)" fill="#fff" />
        <path d="M6.611,3.306A3.306,3.306,0,1,1,3.306,0,3.306,3.306,0,0,1,6.611,3.306" transform="translate(165.278 165.278)" fill="#fff" />
        <path d="M6.611,3.306A3.306,3.306,0,1,1,3.306,0,3.306,3.306,0,0,1,6.611,3.306" transform="translate(198.333 165.278)" fill="#fff" />
        <path d="M6.611,3.306A3.306,3.306,0,1,1,3.306,0,3.306,3.306,0,0,1,6.611,3.306" transform="translate(231.389 165.278)" fill="#fff" />
        <path d="M6.611,3.306A3.306,3.306,0,1,1,3.306,0,3.306,3.306,0,0,1,6.611,3.306" transform="translate(0 198.333)" fill="#fff" />
        <path d="M6.611,3.306A3.306,3.306,0,1,1,3.306,0,3.306,3.306,0,0,1,6.611,3.306" transform="translate(33.056 198.333)" fill="#fff" />
        <path d="M6.611,3.306A3.306,3.306,0,1,1,3.306,0,3.306,3.306,0,0,1,6.611,3.306" transform="translate(66.111 198.333)" fill="#fff" />
        <path d="M6.611,3.306A3.306,3.306,0,1,1,3.306,0,3.306,3.306,0,0,1,6.611,3.306" transform="translate(99.167 198.333)" fill="#fff" />
        <path d="M6.611,3.306A3.306,3.306,0,1,1,3.306,0,3.306,3.306,0,0,1,6.611,3.306" transform="translate(132.222 198.333)" fill="#fff" />
        <path d="M6.611,3.306A3.306,3.306,0,1,1,3.306,0,3.306,3.306,0,0,1,6.611,3.306" transform="translate(165.278 198.333)" fill="#fff" />
        <path d="M6.611,3.306A3.306,3.306,0,1,1,3.306,0,3.306,3.306,0,0,1,6.611,3.306" transform="translate(198.333 198.333)" fill="#fff" />
        <path d="M6.611,3.306A3.306,3.306,0,1,1,3.306,0,3.306,3.306,0,0,1,6.611,3.306" transform="translate(231.389 198.333)" fill="#fff" />
        <path d="M6.611,3.306A3.306,3.306,0,1,1,3.306,0,3.306,3.306,0,0,1,6.611,3.306" transform="translate(0 231.389)" fill="#fff" />
        <path d="M6.611,3.306A3.306,3.306,0,1,1,3.306,0,3.306,3.306,0,0,1,6.611,3.306" transform="translate(33.056 231.389)" fill="#fff" />
        <path d="M6.611,3.306A3.306,3.306,0,1,1,3.306,0,3.306,3.306,0,0,1,6.611,3.306" transform="translate(66.111 231.389)" fill="#fff" />
        <path d="M6.611,3.306A3.306,3.306,0,1,1,3.306,0,3.306,3.306,0,0,1,6.611,3.306" transform="translate(99.167 231.389)" fill="#fff" />
        <path d="M6.611,3.306A3.306,3.306,0,1,1,3.306,0,3.306,3.306,0,0,1,6.611,3.306" transform="translate(132.222 231.389)" fill="#fff" />
        <path d="M6.611,3.306A3.306,3.306,0,1,1,3.306,0,3.306,3.306,0,0,1,6.611,3.306" transform="translate(165.278 231.389)" fill="#fff" />
        <path d="M6.611,3.306A3.306,3.306,0,1,1,3.306,0,3.306,3.306,0,0,1,6.611,3.306" transform="translate(198.333 231.389)" fill="#fff" />
        <path d="M6.611,3.306A3.306,3.306,0,1,1,3.306,0,3.306,3.306,0,0,1,6.611,3.306" transform="translate(231.389 231.389)" fill="#fff" />
    </g>
    <rect width="20" height="20" transform="translate(553.036 671.752) rotate(45)" fill="none" stroke="#fff" stroke-miterlimit="10" stroke-width="4" />
    <path d="M12,4a8.009,8.009,0,0,1,8,8h4A12,12,0,0,0,0,12H4a8.009,8.009,0,0,1,8-8" transform="translate(190.036 671.894)" fill="#fff" />
    <path d="M12,0A12.013,12.013,0,0,0,0,12H4a8.009,8.009,0,0,1,8-8Z" transform="translate(536.036 911.894)" fill="#fff" />
</svg>