<svg xmlns="http://www.w3.org/2000/svg"
    xmlns:xlink="http://www.w3.org/1999/xlink" width="1183.945" height="1151.945" viewBox="0 0 1183.945 1151.945">
    <defs>
        <filter id="a" x="915.945" y="421" width="268" height="268" filterUnits="userSpaceOnUse">
            <feOffset dx="40" dy="2" input="SourceAlpha" />
            <feGaussianBlur stdDeviation="40" result="b" />
            <feFlood flood-opacity="0.502" />
            <feComposite operator="in" in2="b" />
            <feComposite in="SourceGraphic" />
        </filter>
    </defs>
    <rect width="724" height="724" rx="100" transform="translate(0 640) rotate(-45)" fill="lightseagreen" />
    <g transform="translate(572.945 411)">
        <path d="M4.944,2.472A2.472,2.472,0,1,1,2.472,0,2.472,2.472,0,0,1,4.944,2.472" fill="#fff" />
        <path d="M4.944,2.472A2.472,2.472,0,1,1,2.472,0,2.472,2.472,0,0,1,4.944,2.472" transform="translate(24.722)" fill="#fff" />
        <path d="M4.944,2.472A2.472,2.472,0,1,1,2.472,0,2.472,2.472,0,0,1,4.944,2.472" transform="translate(49.444)" fill="#fff" />
        <path d="M4.944,2.472A2.472,2.472,0,1,1,2.472,0,2.472,2.472,0,0,1,4.944,2.472" transform="translate(74.167)" fill="#fff" />
        <path d="M4.944,2.472A2.472,2.472,0,1,1,2.472,0,2.472,2.472,0,0,1,4.944,2.472" transform="translate(98.889)" fill="#fff" />
        <path d="M4.944,2.472A2.472,2.472,0,1,1,2.472,0,2.472,2.472,0,0,1,4.944,2.472" transform="translate(123.611)" fill="#fff" />
        <path d="M4.944,2.472A2.472,2.472,0,1,1,2.472,0,2.472,2.472,0,0,1,4.944,2.472" transform="translate(148.333)" fill="#fff" />
        <path d="M4.944,2.472A2.472,2.472,0,1,1,2.472,0,2.472,2.472,0,0,1,4.944,2.472" transform="translate(173.056)" fill="#fff" />
        <path d="M4.944,2.472A2.472,2.472,0,1,1,2.472,0,2.472,2.472,0,0,1,4.944,2.472" transform="translate(0 24.722)" fill="#fff" />
        <path d="M4.944,2.472A2.472,2.472,0,1,1,2.472,0,2.472,2.472,0,0,1,4.944,2.472" transform="translate(24.722 24.722)" fill="#fff" />
        <path d="M4.944,2.472A2.472,2.472,0,1,1,2.472,0,2.472,2.472,0,0,1,4.944,2.472" transform="translate(49.444 24.722)" fill="#fff" />
        <path d="M4.944,2.472A2.472,2.472,0,1,1,2.472,0,2.472,2.472,0,0,1,4.944,2.472" transform="translate(74.167 24.722)" fill="#fff" />
        <path d="M4.944,2.472A2.472,2.472,0,1,1,2.472,0,2.472,2.472,0,0,1,4.944,2.472" transform="translate(98.889 24.722)" fill="#fff" />
        <path d="M4.944,2.472A2.472,2.472,0,1,1,2.472,0,2.472,2.472,0,0,1,4.944,2.472" transform="translate(123.611 24.722)" fill="#fff" />
        <path d="M4.944,2.472A2.472,2.472,0,1,1,2.472,0,2.472,2.472,0,0,1,4.944,2.472" transform="translate(148.333 24.722)" fill="#fff" />
        <path d="M4.944,2.472A2.472,2.472,0,1,1,2.472,0,2.472,2.472,0,0,1,4.944,2.472" transform="translate(173.056 24.722)" fill="#fff" />
        <path d="M4.944,2.472A2.472,2.472,0,1,1,2.472,0,2.472,2.472,0,0,1,4.944,2.472" transform="translate(0 49.444)" fill="#fff" />
        <path d="M4.944,2.472A2.472,2.472,0,1,1,2.472,0,2.472,2.472,0,0,1,4.944,2.472" transform="translate(24.722 49.444)" fill="#fff" />
        <path d="M4.944,2.472A2.472,2.472,0,1,1,2.472,0,2.472,2.472,0,0,1,4.944,2.472" transform="translate(49.444 49.444)" fill="#fff" />
        <path d="M4.944,2.472A2.472,2.472,0,1,1,2.472,0,2.472,2.472,0,0,1,4.944,2.472" transform="translate(74.167 49.444)" fill="#fff" />
        <path d="M4.944,2.472A2.472,2.472,0,1,1,2.472,0,2.472,2.472,0,0,1,4.944,2.472" transform="translate(98.889 49.444)" fill="#fff" />
        <path d="M4.944,2.472A2.472,2.472,0,1,1,2.472,0,2.472,2.472,0,0,1,4.944,2.472" transform="translate(123.611 49.444)" fill="#fff" />
        <path d="M4.944,2.472A2.472,2.472,0,1,1,2.472,0,2.472,2.472,0,0,1,4.944,2.472" transform="translate(148.333 49.444)" fill="#fff" />
        <path d="M4.944,2.472A2.472,2.472,0,1,1,2.472,0,2.472,2.472,0,0,1,4.944,2.472" transform="translate(173.056 49.444)" fill="#fff" />
        <path d="M4.944,2.472A2.472,2.472,0,1,1,2.472,0,2.472,2.472,0,0,1,4.944,2.472" transform="translate(0 74.167)" fill="#fff" />
        <path d="M4.944,2.472A2.472,2.472,0,1,1,2.472,0,2.472,2.472,0,0,1,4.944,2.472" transform="translate(24.722 74.167)" fill="#fff" />
        <path d="M4.944,2.472A2.472,2.472,0,1,1,2.472,0,2.472,2.472,0,0,1,4.944,2.472" transform="translate(49.444 74.167)" fill="#fff" />
        <path d="M4.944,2.472A2.472,2.472,0,1,1,2.472,0,2.472,2.472,0,0,1,4.944,2.472" transform="translate(74.167 74.167)" fill="#fff" />
        <path d="M4.944,2.472A2.472,2.472,0,1,1,2.472,0,2.472,2.472,0,0,1,4.944,2.472" transform="translate(98.889 74.167)" fill="#fff" />
        <path d="M4.944,2.472A2.472,2.472,0,1,1,2.472,0,2.472,2.472,0,0,1,4.944,2.472" transform="translate(123.611 74.167)" fill="#fff" />
        <path d="M4.944,2.472A2.472,2.472,0,1,1,2.472,0,2.472,2.472,0,0,1,4.944,2.472" transform="translate(148.333 74.167)" fill="#fff" />
        <path d="M4.944,2.472A2.472,2.472,0,1,1,2.472,0,2.472,2.472,0,0,1,4.944,2.472" transform="translate(173.056 74.167)" fill="#fff" />
        <path d="M4.944,2.472A2.472,2.472,0,1,1,2.472,0,2.472,2.472,0,0,1,4.944,2.472" transform="translate(0 98.889)" fill="#fff" />
        <path d="M4.944,2.472A2.472,2.472,0,1,1,2.472,0,2.472,2.472,0,0,1,4.944,2.472" transform="translate(24.722 98.889)" fill="#fff" />
        <path d="M4.944,2.472A2.472,2.472,0,1,1,2.472,0,2.472,2.472,0,0,1,4.944,2.472" transform="translate(49.444 98.889)" fill="#fff" />
        <path d="M4.944,2.472A2.472,2.472,0,1,1,2.472,0,2.472,2.472,0,0,1,4.944,2.472" transform="translate(74.167 98.889)" fill="#fff" />
        <path d="M4.944,2.472A2.472,2.472,0,1,1,2.472,0,2.472,2.472,0,0,1,4.944,2.472" transform="translate(98.889 98.889)" fill="#fff" />
        <path d="M4.944,2.472A2.472,2.472,0,1,1,2.472,0,2.472,2.472,0,0,1,4.944,2.472" transform="translate(123.611 98.889)" fill="#fff" />
        <path d="M4.944,2.472A2.472,2.472,0,1,1,2.472,0,2.472,2.472,0,0,1,4.944,2.472" transform="translate(148.333 98.889)" fill="#fff" />
        <path d="M4.944,2.472A2.472,2.472,0,1,1,2.472,0,2.472,2.472,0,0,1,4.944,2.472" transform="translate(173.056 98.889)" fill="#fff" />
        <path d="M4.944,2.472A2.472,2.472,0,1,1,2.472,0,2.472,2.472,0,0,1,4.944,2.472" transform="translate(0 123.611)" fill="#fff" />
        <path d="M4.944,2.472A2.472,2.472,0,1,1,2.472,0,2.472,2.472,0,0,1,4.944,2.472" transform="translate(24.722 123.611)" fill="#fff" />
        <path d="M4.944,2.472A2.472,2.472,0,1,1,2.472,0,2.472,2.472,0,0,1,4.944,2.472" transform="translate(49.444 123.611)" fill="#fff" />
        <path d="M4.944,2.472A2.472,2.472,0,1,1,2.472,0,2.472,2.472,0,0,1,4.944,2.472" transform="translate(74.167 123.611)" fill="#fff" />
        <path d="M4.944,2.472A2.472,2.472,0,1,1,2.472,0,2.472,2.472,0,0,1,4.944,2.472" transform="translate(98.889 123.611)" fill="#fff" />
        <path d="M4.944,2.472A2.472,2.472,0,1,1,2.472,0,2.472,2.472,0,0,1,4.944,2.472" transform="translate(123.611 123.611)" fill="#fff" />
        <path d="M4.944,2.472A2.472,2.472,0,1,1,2.472,0,2.472,2.472,0,0,1,4.944,2.472" transform="translate(148.333 123.611)" fill="#fff" />
        <path d="M4.944,2.472A2.472,2.472,0,1,1,2.472,0,2.472,2.472,0,0,1,4.944,2.472" transform="translate(173.056 123.611)" fill="#fff" />
        <path d="M4.944,2.472A2.472,2.472,0,1,1,2.472,0,2.472,2.472,0,0,1,4.944,2.472" transform="translate(0 148.333)" fill="#fff" />
        <path d="M4.944,2.472A2.472,2.472,0,1,1,2.472,0,2.472,2.472,0,0,1,4.944,2.472" transform="translate(24.722 148.333)" fill="#fff" />
        <path d="M4.944,2.472A2.472,2.472,0,1,1,2.472,0,2.472,2.472,0,0,1,4.944,2.472" transform="translate(49.444 148.333)" fill="#fff" />
        <path d="M4.944,2.472A2.472,2.472,0,1,1,2.472,0,2.472,2.472,0,0,1,4.944,2.472" transform="translate(74.167 148.333)" fill="#fff" />
        <path d="M4.944,2.472A2.472,2.472,0,1,1,2.472,0,2.472,2.472,0,0,1,4.944,2.472" transform="translate(98.889 148.333)" fill="#fff" />
        <path d="M4.944,2.472A2.472,2.472,0,1,1,2.472,0,2.472,2.472,0,0,1,4.944,2.472" transform="translate(123.611 148.333)" fill="#fff" />
        <path d="M4.944,2.472A2.472,2.472,0,1,1,2.472,0,2.472,2.472,0,0,1,4.944,2.472" transform="translate(148.333 148.333)" fill="#fff" />
        <path d="M4.944,2.472A2.472,2.472,0,1,1,2.472,0,2.472,2.472,0,0,1,4.944,2.472" transform="translate(173.056 148.333)" fill="#fff" />
        <path d="M4.944,2.472A2.472,2.472,0,1,1,2.472,0,2.472,2.472,0,0,1,4.944,2.472" transform="translate(0 173.056)" fill="#fff" />
        <path d="M4.944,2.472A2.472,2.472,0,1,1,2.472,0,2.472,2.472,0,0,1,4.944,2.472" transform="translate(24.722 173.056)" fill="#fff" />
        <path d="M4.944,2.472A2.472,2.472,0,1,1,2.472,0,2.472,2.472,0,0,1,4.944,2.472" transform="translate(49.444 173.056)" fill="#fff" />
        <path d="M4.944,2.472A2.472,2.472,0,1,1,2.472,0,2.472,2.472,0,0,1,4.944,2.472" transform="translate(74.167 173.056)" fill="#fff" />
        <path d="M4.944,2.472A2.472,2.472,0,1,1,2.472,0,2.472,2.472,0,0,1,4.944,2.472" transform="translate(98.889 173.056)" fill="#fff" />
        <path d="M4.944,2.472A2.472,2.472,0,1,1,2.472,0,2.472,2.472,0,0,1,4.944,2.472" transform="translate(123.611 173.056)" fill="#fff" />
        <path d="M4.944,2.472A2.472,2.472,0,1,1,2.472,0,2.472,2.472,0,0,1,4.944,2.472" transform="translate(148.333 173.056)" fill="#fff" />
        <path d="M4.944,2.472A2.472,2.472,0,1,1,2.472,0,2.472,2.472,0,0,1,4.944,2.472" transform="translate(173.056 173.056)" fill="#fff" />
    </g>
    <g transform="translate(511.945 -85)">
        <circle cx="12" cy="12" r="12" transform="translate(486 626)" fill="none" />
        <g transform="matrix(1, 0, 0, 1, -511.95, 85)" filter="url(#a)">
            <circle cx="12" cy="12" r="12" transform="translate(997.95 541)" fill="none" stroke="lightseagreen" stroke-miterlimit="10" stroke-width="4" />
        </g>
    </g>
    <rect width="20" height="20" transform="translate(621.945 189.857) rotate(45)" fill="none" stroke="lightseagreen" stroke-miterlimit="10" stroke-width="4" />
    <path d="M12,4a8.009,8.009,0,0,1,8,8h4A12,12,0,0,0,0,12H4a8.009,8.009,0,0,1,8-8" transform="translate(568.945 93.143)" fill="lightseagreen" />
    <path d="M12,0A12.013,12.013,0,0,0,0,12H4a8.009,8.009,0,0,1,8-8Z" transform="translate(689.945)" fill="lightseagreen" />
</svg>