<?xml version="1.0" encoding="UTF-8" standalone="no"?>
<!-- Created with Inkscape (http://www.inkscape.org/) -->

<svg
   xmlns:dc="http://purl.org/dc/elements/1.1/"
   xmlns:cc="http://creativecommons.org/ns#"
   xmlns:rdf="http://www.w3.org/1999/02/22-rdf-syntax-ns#"
   xmlns:svg="http://www.w3.org/2000/svg"
   xmlns="http://www.w3.org/2000/svg"
   xmlns:sodipodi="http://sodipodi.sourceforge.net/DTD/sodipodi-0.dtd"
   xmlns:inkscape="http://www.inkscape.org/namespaces/inkscape"
   width="170.017mm"
   height="34.372002mm"
   viewBox="0 0 170.017 34.372002"
   version="1.1"
   id="svg8"
   inkscape:version="0.92.4 (33fec40, 2019-01-16)"
   sodipodi:docname="buffl.svg">
  <defs
     id="defs2">
    <clipPath
       id="clipPath26"
       clipPathUnits="userSpaceOnUse">
      <path
         inkscape:connector-curvature="0"
         id="path24"
         d="M 0,220 H 584 V 0 H 0 Z" />
    </clipPath>
  </defs>
  <sodipodi:namedview
     id="base"
     pagecolor="#ffffff"
     bordercolor="#666666"
     borderopacity="1.0"
     inkscape:pageopacity="0.0"
     inkscape:pageshadow="2"
     inkscape:zoom="11.2"
     inkscape:cx="37.877486"
     inkscape:cy="96.653234"
     inkscape:document-units="mm"
     inkscape:current-layer="layer1"
     showgrid="false"
     inkscape:window-width="1853"
     inkscape:window-height="1016"
     inkscape:window-x="67"
     inkscape:window-y="27"
     inkscape:window-maximized="1" />
  <metadata
     id="metadata5">
    <rdf:RDF>
      <cc:Work
         rdf:about="">
        <dc:format>image/svg+xml</dc:format>
        <dc:type
           rdf:resource="http://purl.org/dc/dcmitype/StillImage" />
        <dc:title></dc:title>
      </cc:Work>
    </rdf:RDF>
  </metadata>
  <g
     inkscape:label="Layer 1"
     inkscape:groupmode="layer"
     id="layer1"
     transform="translate(0,-262.628)">
    <g
       transform="matrix(0.35277777,0,0,-0.35277777,-17.982771,318.64879)"
       inkscape:label="logolayouts"
       id="g18">
      <g
         id="g20">
        <g
           clip-path="url(#clipPath26)"
           id="g22">
          <g
             transform="translate(103.269,81.5723)"
             id="g28">
            <path
               inkscape:connector-curvature="0"
               id="path30"
               style="fill:#000000;fill-opacity:1;fill-rule:nonzero;stroke:none"
               d="M 0,0 C -1.944,-2.187 -4.981,-2.794 -8.504,-2.794 H -32.68 v 23.933 h 24.419 c 3.28,0 6.196,-0.851 8.139,-2.916 C 1.822,16.036 2.794,12.392 2.794,8.747 2.794,5.467 1.944,2.065 0,0 m -32.68,60.986 h 20.895 c 3.524,0 6.682,-0.972 8.383,-2.794 1.701,-1.823 2.795,-5.346 2.795,-8.99 0,-4.373 -1.094,-7.897 -2.795,-9.84 -1.701,-1.944 -4.252,-2.673 -6.681,-2.673 H -32.68 Z M 5.345,30.857 c 3.645,0.608 7.168,2.43 9.598,5.346 3.644,4.373 5.102,10.69 5.102,17.372 0,6.682 -1.944,12.513 -5.345,16.158 -4.252,4.617 -10.57,7.411 -20.289,7.411 h -46.65 v -96.217 h 49.688 c 9.962,0 15.914,3.037 20.531,8.017 3.401,3.767 5.71,10.813 5.71,18.102 0,6.682 -1.336,12.999 -4.496,16.643 -3.401,4.01 -8.625,6.682 -13.849,7.168" />
          </g>
          <g
             transform="translate(208.8408,92.0205)"
             id="g32">
            <path
               inkscape:connector-curvature="0"
               id="path34"
               style="fill:#000000;fill-opacity:1;fill-rule:nonzero;stroke:none"
               d="m 0,0 c 0,-8.869 -6.317,-13.972 -16.279,-13.972 -11.055,0 -16.765,5.225 -16.765,14.092 V 66.695 H -52.968 V -1.58 c 0,-20.288 15.064,-29.156 36.446,-29.156 21.867,0 36.445,9.596 36.445,28.305 V 66.695 H 0 Z" />
          </g>
          <g
             transform="translate(379.7744,62.499)"
             id="g36">
            <path
               inkscape:connector-curvature="0"
               id="path38"
               style="fill:#000000;fill-opacity:1;fill-rule:nonzero;stroke:none"
               d="M 0,0 H 19.924 V 39.361 H 60.38 V 57.099 H 19.924 V 78.601 H 62.809 V 96.217 H 0 Z" />
          </g>
          <g
             transform="translate(492.0293,79.75)"
             id="g40">
            <path
               inkscape:connector-curvature="0"
               id="path42"
               style="fill:#000000;fill-opacity:1;fill-rule:nonzero;stroke:none"
               d="M 0,0 V 78.966 H -20.045 V -17.251 H 40.94 V 0 Z" />
          </g>
          <g
             transform="translate(281.9746,158.7158)"
             id="g44">
            <path
               inkscape:connector-curvature="0"
               id="path46"
               style="fill:#000000;fill-opacity:1;fill-rule:nonzero;stroke:none"
               d="M 0,0 H -19.924 V -96.217 H 0 v 39.301 c 26.038,-9.737 50.299,-10.035 76.527,-0.976 v 17.617 C 50.299,-49.335 26.038,-49.039 0,-39.301 v 21.685 c 26.956,-10.034 51.959,-10.013 78.863,0 V 0 C 51.96,-10.012 26.954,-10.035 0,0" />
          </g>
        </g>
      </g>
    </g>
  </g>
</svg>
