<svg xmlns="http://www.w3.org/2000/svg"
    xmlns:xlink="http://www.w3.org/1999/xlink" width="79.563" height="55" viewBox="0 0 79.563 55">
    <defs>
        <clipPath id="a">
            <rect width="79.563" height="31.663" fill="lightseagreen" />
        </clipPath>
    </defs>
    <g transform="translate(0 11.668)">
        <g clip-path="url(#a)">
            <path d="M1.172,86.359A19.8,19.8,0,0,0,.393,74.522c-.934-2.175-.156-2.5,1.829-3.244l8.679-2.5a3.623,3.623,0,0,1,.934-.143c.817,0,1.4.428,1.129,1.676a7.393,7.393,0,0,1,5.838-2.21c4.671,0,9.614,2.781,9.614,9.127.117,7.915-7.084,10.411-12.377,9.947a13.88,13.88,0,0,1-3.659-.891v.071C13,89.318,15.5,93.7,10.2,93.561H3.39c-5.371,0-2.841-4.207-2.219-7.2M11.8,79.264c.117,3.351,1.129,6.489,3.464,6.774,5.216.784,4.087-15.972.428-15.972-1.907,0-3.192,2.924-3.7,6.168-.117,1.034-.156,2.032-.195,3.03" transform="translate(0 -61.901)" fill="lightseagreen" />
            <path d="M299.449,15.331c0-6.346,4.9-9.127,9.575-9.127,2.491,0,4.71.642,6.227,2.638a18.924,18.924,0,0,0-.934-2.959c-.973-2.175-.156-2.5,1.829-3.244l8.679-2.5a3.6,3.6,0,0,1,.9-.143c.9,0,1.44.428,1.168,1.711-1.246,5.312-1.752,12.015-.195,17.434.74,2.6,1.713,5.669-1.245,5.776-1.829,0-2.919-1.283-6.344-1.283-2.53,0-4.4,1.355-7.278,1.64-5.293.57-12.494-2.1-12.377-9.947M312.6,24.137c5.332-.713,3.931-15.972-.428-15.972-3.62,0-4.865,16.685.428,15.972" transform="translate(-269.67)" fill="lightseagreen" />
            <path d="M602.685,68.1c3.5,0,8.212,1.462,8.212,5.277,0,3.03-3.347,5.241-6.772,4.528-1.012-.214-1.868-1.177-1.362-2.032,1.44-2.424-1.09-6.417-3.736-6.417a2.513,2.513,0,0,0-1.129.285c-1.09.57-1.245,2.21-.506,4.207,1.79,4.884,6.033,7.986,12.416,7.7a1.361,1.361,0,0,1,1.012,2.424,11.778,11.778,0,0,1-7.434,3.173c-5.838.535-12.182-2.175-12.844-8.378-.7-6.845,5.06-10.767,12.143-10.767" transform="translate(-531.765 -61.9)" fill="lightseagreen" />
        </g>
    </g>
</svg>